<svg role="img" viewBox="0 0 24 24" xmlns="http://www.w3.org/2000/svg"><title>LongCat</title><path d="M0.507 20.441C0.172 20.441 -0.07 20.122 0.019 19.8L4.291 4.305C4.474 3.642 5.249 3.35 5.823 3.727L11.445 7.413C11.782 7.634 12.217 7.634 12.555 7.414L18.2 3.725C18.775 3.349 19.55 3.642 19.732 4.305L23.982 19.801C24.07 20.123 23.827 20.441 23.493 20.441L18.067 20.441C19.055 19.297 19.598 17.837 19.598 16.325L19.598 16.149C19.598 14.671 19.06 13.243 18.085 12.132L17.389 8.637C17.348 8.431 17.168 8.283 16.958 8.283C16.863 8.283 16.771 8.314 16.695 8.371L14.069 10.34C13.882 10.48 13.641 10.525 13.416 10.461C12.49 10.196 11.509 10.196 10.583 10.461C10.359 10.525 10.117 10.48 9.93 10.34L7.303 8.37C7.228 8.314 7.136 8.283 7.042 8.283C6.833 8.283 6.653 8.433 6.615 8.639L5.939 12.291C4.953 13.294 4.401 14.643 4.401 16.049L4.401 16.383C4.401 17.858 4.928 19.283 5.888 20.403L5.921 20.441ZM9.213 17.402L9.444 13.856L10.733 13.856L10.733 17.402ZM14.786 17.402L13.266 17.402L13.266 13.856L14.555 13.856Z"/></svg>
